<svg width="164" height="20" viewBox="0 0 164 20" fill="none" xmlns="http://www.w3.org/2000/svg">
<path d="M61.134 7.176V6.144L65.166 0.36H66.822V5.988H67.938V7.176H66.822V9H65.478V7.176H61.134ZM65.538 1.752L62.706 5.988H65.538V1.752ZM72.6716 2.28C73.1756 2.28 73.6236 2.388 74.0156 2.604C74.4156 2.82 74.7276 3.14 74.9516 3.564C75.1836 3.988 75.2996 4.5 75.2996 5.1V9H73.9436V5.304C73.9436 4.712 73.7956 4.26 73.4996 3.948C73.2036 3.628 72.7996 3.468 72.2876 3.468C71.7756 3.468 71.3676 3.628 71.0636 3.948C70.7676 4.26 70.6196 4.712 70.6196 5.304V9H69.2516V0.12H70.6196V3.156C70.8516 2.876 71.1436 2.66 71.4956 2.508C71.8556 2.356 72.2476 2.28 72.6716 2.28ZM79.9817 4.512C79.9817 3.128 80.2137 2.048 80.6777 1.272C81.1497 0.487999 81.9577 0.0959995 83.1017 0.0959995C84.2457 0.0959995 85.0497 0.487999 85.5137 1.272C85.9857 2.048 86.2217 3.128 86.2217 4.512C86.2217 5.912 85.9857 7.008 85.5137 7.8C85.0497 8.584 84.2457 8.976 83.1017 8.976C81.9577 8.976 81.1497 8.584 80.6777 7.8C80.2137 7.008 79.9817 5.912 79.9817 4.512ZM84.8777 4.512C84.8777 3.864 84.8337 3.316 84.7457 2.868C84.6657 2.42 84.4977 2.056 84.2417 1.776C83.9857 1.488 83.6057 1.344 83.1017 1.344C82.5977 1.344 82.2177 1.488 81.9617 1.776C81.7057 2.056 81.5337 2.42 81.4457 2.868C81.3657 3.316 81.3257 3.864 81.3257 4.512C81.3257 5.184 81.3657 5.748 81.4457 6.204C81.5257 6.66 81.6937 7.028 81.9497 7.308C82.2137 7.588 82.5977 7.728 83.1017 7.728C83.6057 7.728 83.9857 7.588 84.2417 7.308C84.5057 7.028 84.6777 6.66 84.7577 6.204C84.8377 5.748 84.8777 5.184 84.8777 4.512ZM95.8532 2.28C96.3732 2.28 96.8372 2.388 97.2452 2.604C97.6612 2.82 97.9852 3.14 98.2172 3.564C98.4572 3.988 98.5772 4.5 98.5772 5.1V9H97.2212V5.304C97.2212 4.712 97.0732 4.26 96.7772 3.948C96.4812 3.628 96.0772 3.468 95.5652 3.468C95.0532 3.468 94.6452 3.628 94.3412 3.948C94.0452 4.26 93.8972 4.712 93.8972 5.304V9H92.5412V5.304C92.5412 4.712 92.3932 4.26 92.0972 3.948C91.8012 3.628 91.3972 3.468 90.8852 3.468C90.3732 3.468 89.9652 3.628 89.6612 3.948C89.3652 4.26 89.2172 4.712 89.2172 5.304V9H87.8492V2.388H89.2172V3.144C89.4412 2.872 89.7252 2.66 90.0692 2.508C90.4132 2.356 90.7812 2.28 91.1732 2.28C91.7012 2.28 92.1732 2.392 92.5892 2.616C93.0052 2.84 93.3252 3.164 93.5492 3.588C93.7492 3.188 94.0612 2.872 94.4852 2.64C94.9092 2.4 95.3652 2.28 95.8532 2.28Z" fill="#3C3C3C"/>
<path fill-rule="evenodd" clip-rule="evenodd" d="M164 17C164 17.2761 163.776 17.5 163.5 17.5H0V16.5H163.5C163.776 16.5 164 16.7239 164 17V17Z" fill="#151515"/>
<path fill-rule="evenodd" clip-rule="evenodd" d="M161.825 14.6416C161.636 14.4528 161.33 14.4528 161.142 14.6416C160.953 14.8303 160.953 15.1363 161.142 15.3251L162.8 16.9833L161.142 18.6416C160.953 18.8303 160.953 19.1363 161.142 19.3251C161.33 19.5139 161.636 19.5139 161.825 19.3251L163.825 17.3251C164.014 17.1363 164.014 16.8303 163.825 16.6416L161.825 14.6416Z" fill="#151515"/>
</svg>
