<svg width="260" height="227" viewBox="0 0 260 227" fill="none" xmlns="http://www.w3.org/2000/svg">
<path d="M21.6696 202.098C20.7643 202.098 19.929 201.888 19.1636 201.468C18.4076 201.039 17.8056 200.446 17.3576 199.69C16.919 198.925 16.6996 198.066 16.6996 197.114C16.6996 196.162 16.919 195.308 17.3576 194.552C17.8056 193.796 18.4076 193.208 19.1636 192.788C19.929 192.359 20.7643 192.144 21.6696 192.144C22.5843 192.144 23.4196 192.359 24.1756 192.788C24.941 193.208 25.543 193.796 25.9816 194.552C26.4203 195.308 26.6396 196.162 26.6396 197.114C26.6396 198.066 26.4203 198.925 25.9816 199.69C25.543 200.446 24.941 201.039 24.1756 201.468C23.4196 201.888 22.5843 202.098 21.6696 202.098ZM21.6696 200.712C22.3136 200.712 22.8876 200.567 23.3916 200.278C23.8956 199.979 24.2876 199.559 24.5676 199.018C24.857 198.467 25.0016 197.833 25.0016 197.114C25.0016 196.395 24.857 195.765 24.5676 195.224C24.2876 194.683 23.8956 194.267 23.3916 193.978C22.8876 193.689 22.3136 193.544 21.6696 193.544C21.0256 193.544 20.4516 193.689 19.9476 193.978C19.4436 194.267 19.047 194.683 18.7576 195.224C18.4776 195.765 18.3376 196.395 18.3376 197.114C18.3376 197.833 18.4776 198.467 18.7576 199.018C19.047 199.559 19.4436 199.979 19.9476 200.278C20.4516 200.567 21.0256 200.712 21.6696 200.712ZM31.5562 202.126C30.8282 202.126 30.1702 201.963 29.5822 201.636C28.9942 201.3 28.5322 200.833 28.1962 200.236C27.8602 199.629 27.6922 198.929 27.6922 198.136C27.6922 197.352 27.8648 196.657 28.2102 196.05C28.5555 195.443 29.0268 194.977 29.6242 194.65C30.2215 194.323 30.8888 194.16 31.6262 194.16C32.3635 194.16 33.0308 194.323 33.6282 194.65C34.2255 194.977 34.6968 195.443 35.0422 196.05C35.3875 196.657 35.5602 197.352 35.5602 198.136C35.5602 198.92 35.3828 199.615 35.0282 200.222C34.6735 200.829 34.1882 201.3 33.5722 201.636C32.9655 201.963 32.2935 202.126 31.5562 202.126ZM31.5562 200.74C31.9668 200.74 32.3495 200.642 32.7042 200.446C33.0682 200.25 33.3622 199.956 33.5862 199.564C33.8102 199.172 33.9222 198.696 33.9222 198.136C33.9222 197.576 33.8148 197.105 33.6002 196.722C33.3855 196.33 33.1008 196.036 32.7462 195.84C32.3915 195.644 32.0088 195.546 31.5982 195.546C31.1875 195.546 30.8048 195.644 30.4502 195.84C30.1048 196.036 29.8295 196.33 29.6242 196.722C29.4188 197.105 29.3162 197.576 29.3162 198.136C29.3162 198.967 29.5262 199.611 29.9462 200.068C30.3755 200.516 30.9122 200.74 31.5562 200.74ZM38.7339 195.42C39.0046 195.065 39.3732 194.767 39.8399 194.524C40.3066 194.281 40.8339 194.16 41.4219 194.16C42.0939 194.16 42.7052 194.328 43.2559 194.664C43.8159 194.991 44.2546 195.453 44.5719 196.05C44.8892 196.647 45.0479 197.333 45.0479 198.108C45.0479 198.883 44.8892 199.578 44.5719 200.194C44.2546 200.801 43.8159 201.277 43.2559 201.622C42.7052 201.958 42.0939 202.126 41.4219 202.126C40.8339 202.126 40.3112 202.009 39.8539 201.776C39.3966 201.533 39.0232 201.235 38.7339 200.88V205.668H37.1379V194.286H38.7339V195.42ZM43.4239 198.108C43.4239 197.576 43.3119 197.119 43.0879 196.736C42.8732 196.344 42.5839 196.05 42.2199 195.854C41.8652 195.649 41.4826 195.546 41.0719 195.546C40.6706 195.546 40.2879 195.649 39.9239 195.854C39.5692 196.059 39.2799 196.358 39.0559 196.75C38.8412 197.142 38.7339 197.604 38.7339 198.136C38.7339 198.668 38.8412 199.135 39.0559 199.536C39.2799 199.928 39.5692 200.227 39.9239 200.432C40.2879 200.637 40.6706 200.74 41.0719 200.74C41.4826 200.74 41.8652 200.637 42.2199 200.432C42.5839 200.217 42.8732 199.909 43.0879 199.508C43.3119 199.107 43.4239 198.64 43.4239 198.108ZM49.4262 202.126C48.8195 202.126 48.2735 202.019 47.7882 201.804C47.3122 201.58 46.9342 201.281 46.6542 200.908C46.3742 200.525 46.2248 200.101 46.2062 199.634H47.8582C47.8862 199.961 48.0402 200.236 48.3202 200.46C48.6095 200.675 48.9688 200.782 49.3982 200.782C49.8462 200.782 50.1915 200.698 50.4342 200.53C50.6862 200.353 50.8122 200.129 50.8122 199.858C50.8122 199.569 50.6722 199.354 50.3922 199.214C50.1215 199.074 49.6875 198.92 49.0902 198.752C48.5115 198.593 48.0402 198.439 47.6762 198.29C47.3122 198.141 46.9948 197.912 46.7242 197.604C46.4628 197.296 46.3322 196.89 46.3322 196.386C46.3322 195.975 46.4535 195.602 46.6962 195.266C46.9388 194.921 47.2842 194.65 47.7322 194.454C48.1895 194.258 48.7122 194.16 49.3002 194.16C50.1775 194.16 50.8822 194.384 51.4142 194.832C51.9555 195.271 52.2448 195.873 52.2822 196.638H50.6862C50.6582 196.293 50.5182 196.017 50.2662 195.812C50.0142 195.607 49.6735 195.504 49.2442 195.504C48.8242 195.504 48.5022 195.583 48.2782 195.742C48.0542 195.901 47.9422 196.111 47.9422 196.372C47.9422 196.577 48.0168 196.75 48.1662 196.89C48.3155 197.03 48.4975 197.142 48.7122 197.226C48.9268 197.301 49.2442 197.399 49.6642 197.52C50.2242 197.669 50.6815 197.823 51.0362 197.982C51.4002 198.131 51.7128 198.355 51.9742 198.654C52.2355 198.953 52.3708 199.349 52.3802 199.844C52.3802 200.283 52.2588 200.675 52.0162 201.02C51.7735 201.365 51.4282 201.636 50.9802 201.832C50.5415 202.028 50.0235 202.126 49.4262 202.126ZM56.1067 192.27L55.9247 199.06H54.5947L54.4127 192.27H56.1067ZM55.3087 202.098C55.0194 202.098 54.7767 202 54.5807 201.804C54.3847 201.608 54.2867 201.365 54.2867 201.076C54.2867 200.787 54.3847 200.544 54.5807 200.348C54.7767 200.152 55.0194 200.054 55.3087 200.054C55.5887 200.054 55.8267 200.152 56.0227 200.348C56.2187 200.544 56.3167 200.787 56.3167 201.076C56.3167 201.365 56.2187 201.608 56.0227 201.804C55.8267 202 55.5887 202.098 55.3087 202.098ZM67.2935 202L65.0535 198.108H63.8355V202H62.2395V192.27H65.5995C66.3461 192.27 66.9761 192.401 67.4895 192.662C68.0121 192.923 68.3995 193.273 68.6515 193.712C68.9128 194.151 69.0435 194.641 69.0435 195.182C69.0435 195.817 68.8568 196.395 68.4835 196.918C68.1195 197.431 67.5548 197.781 66.7895 197.968L69.1975 202H67.2935ZM63.8355 196.834H65.5995C66.1968 196.834 66.6448 196.685 66.9435 196.386C67.2515 196.087 67.4055 195.686 67.4055 195.182C67.4055 194.678 67.2561 194.286 66.9575 194.006C66.6588 193.717 66.2061 193.572 65.5995 193.572H63.8355V196.834ZM71.8972 193.264C71.6078 193.264 71.3652 193.166 71.1692 192.97C70.9732 192.774 70.8752 192.531 70.8752 192.242C70.8752 191.953 70.9732 191.71 71.1692 191.514C71.3652 191.318 71.6078 191.22 71.8972 191.22C72.1772 191.22 72.4152 191.318 72.6112 191.514C72.8072 191.71 72.9052 191.953 72.9052 192.242C72.9052 192.531 72.8072 192.774 72.6112 192.97C72.4152 193.166 72.1772 193.264 71.8972 193.264ZM72.6812 194.286V202H71.0852V194.286H72.6812ZM85.1366 194.286L82.7426 202H81.0626L79.5086 196.302L77.9546 202H76.2746L73.8666 194.286H75.4906L77.1006 200.488L78.7386 194.286H80.4046L81.9726 200.46L83.5686 194.286H85.1366ZM85.7973 198.108C85.7973 197.333 85.956 196.647 86.2733 196.05C86.6 195.453 87.0386 194.991 87.5893 194.664C88.1493 194.328 88.7653 194.16 89.4373 194.16C90.044 194.16 90.5713 194.281 91.0193 194.524C91.4766 194.757 91.8406 195.051 92.1113 195.406V194.286H93.7213V202H92.1113V200.852C91.8406 201.216 91.472 201.519 91.0053 201.762C90.5386 202.005 90.0066 202.126 89.4093 202.126C88.7466 202.126 88.14 201.958 87.5893 201.622C87.0386 201.277 86.6 200.801 86.2733 200.194C85.956 199.578 85.7973 198.883 85.7973 198.108ZM92.1113 198.136C92.1113 197.604 91.9993 197.142 91.7753 196.75C91.5606 196.358 91.276 196.059 90.9213 195.854C90.5666 195.649 90.184 195.546 89.7733 195.546C89.3626 195.546 88.98 195.649 88.6253 195.854C88.2706 196.05 87.9813 196.344 87.7573 196.736C87.5426 197.119 87.4353 197.576 87.4353 198.108C87.4353 198.64 87.5426 199.107 87.7573 199.508C87.9813 199.909 88.2706 200.217 88.6253 200.432C88.9893 200.637 89.372 200.74 89.7733 200.74C90.184 200.74 90.5666 200.637 90.9213 200.432C91.276 200.227 91.5606 199.928 91.7753 199.536C91.9993 199.135 92.1113 198.668 92.1113 198.136ZM102.762 194.286L98.0296 205.626H96.3776L97.9456 201.874L94.9076 194.286H96.6856L98.8556 200.166L101.11 194.286H102.762ZM103.434 198.108C103.434 197.333 103.593 196.647 103.91 196.05C104.237 195.453 104.675 194.991 105.226 194.664C105.786 194.328 106.402 194.16 107.074 194.16C107.681 194.16 108.208 194.281 108.656 194.524C109.113 194.757 109.477 195.051 109.748 195.406V194.286H111.358V202H109.748V200.852C109.477 201.216 109.109 201.519 108.642 201.762C108.175 202.005 107.643 202.126 107.046 202.126C106.383 202.126 105.777 201.958 105.226 201.622C104.675 201.277 104.237 200.801 103.91 200.194C103.593 199.578 103.434 198.883 103.434 198.108ZM109.748 198.136C109.748 197.604 109.636 197.142 109.412 196.75C109.197 196.358 108.913 196.059 108.558 195.854C108.203 195.649 107.821 195.546 107.41 195.546C106.999 195.546 106.617 195.649 106.262 195.854C105.907 196.05 105.618 196.344 105.394 196.736C105.179 197.119 105.072 197.576 105.072 198.108C105.072 198.64 105.179 199.107 105.394 199.508C105.618 199.909 105.907 200.217 106.262 200.432C106.626 200.637 107.009 200.74 107.41 200.74C107.821 200.74 108.203 200.637 108.558 200.432C108.913 200.227 109.197 199.928 109.412 199.536C109.636 199.135 109.748 198.668 109.748 198.136ZM115.316 195.588V199.858C115.316 200.147 115.382 200.357 115.512 200.488C115.652 200.609 115.886 200.67 116.212 200.67H117.192V202H115.932C115.214 202 114.663 201.832 114.28 201.496C113.898 201.16 113.706 200.614 113.706 199.858V195.588H112.796V194.286H113.706V192.368H115.316V194.286H117.192V195.588H115.316ZM123.896 195.42C124.167 195.065 124.535 194.767 125.002 194.524C125.469 194.281 125.996 194.16 126.584 194.16C127.256 194.16 127.867 194.328 128.418 194.664C128.978 194.991 129.417 195.453 129.734 196.05C130.051 196.647 130.21 197.333 130.21 198.108C130.21 198.883 130.051 199.578 129.734 200.194C129.417 200.801 128.978 201.277 128.418 201.622C127.867 201.958 127.256 202.126 126.584 202.126C125.996 202.126 125.473 202.009 125.016 201.776C124.559 201.533 124.185 201.235 123.896 200.88V205.668H122.3V194.286H123.896V195.42ZM128.586 198.108C128.586 197.576 128.474 197.119 128.25 196.736C128.035 196.344 127.746 196.05 127.382 195.854C127.027 195.649 126.645 195.546 126.234 195.546C125.833 195.546 125.45 195.649 125.086 195.854C124.731 196.059 124.442 196.358 124.218 196.75C124.003 197.142 123.896 197.604 123.896 198.136C123.896 198.668 124.003 199.135 124.218 199.536C124.442 199.928 124.731 200.227 125.086 200.432C125.45 200.637 125.833 200.74 126.234 200.74C126.645 200.74 127.027 200.637 127.382 200.432C127.746 200.217 128.035 199.909 128.25 199.508C128.474 199.107 128.586 198.64 128.586 198.108ZM138.858 197.954C138.858 198.243 138.84 198.505 138.802 198.738H132.908C132.955 199.354 133.184 199.849 133.594 200.222C134.005 200.595 134.509 200.782 135.106 200.782C135.965 200.782 136.572 200.423 136.926 199.704H138.648C138.415 200.413 137.99 200.997 137.374 201.454C136.768 201.902 136.012 202.126 135.106 202.126C134.369 202.126 133.706 201.963 133.118 201.636C132.54 201.3 132.082 200.833 131.746 200.236C131.42 199.629 131.256 198.929 131.256 198.136C131.256 197.343 131.415 196.647 131.732 196.05C132.059 195.443 132.512 194.977 133.09 194.65C133.678 194.323 134.35 194.16 135.106 194.16C135.834 194.16 136.483 194.319 137.052 194.636C137.622 194.953 138.065 195.401 138.382 195.98C138.7 196.549 138.858 197.207 138.858 197.954ZM137.192 197.45C137.183 196.862 136.973 196.391 136.562 196.036C136.152 195.681 135.643 195.504 135.036 195.504C134.486 195.504 134.014 195.681 133.622 196.036C133.23 196.381 132.997 196.853 132.922 197.45H137.192ZM143.229 202.126C142.622 202.126 142.076 202.019 141.591 201.804C141.115 201.58 140.737 201.281 140.457 200.908C140.177 200.525 140.028 200.101 140.009 199.634H141.661C141.689 199.961 141.843 200.236 142.123 200.46C142.412 200.675 142.772 200.782 143.201 200.782C143.649 200.782 143.994 200.698 144.237 200.53C144.489 200.353 144.615 200.129 144.615 199.858C144.615 199.569 144.475 199.354 144.195 199.214C143.924 199.074 143.49 198.92 142.893 198.752C142.314 198.593 141.843 198.439 141.479 198.29C141.115 198.141 140.798 197.912 140.527 197.604C140.266 197.296 140.135 196.89 140.135 196.386C140.135 195.975 140.256 195.602 140.499 195.266C140.742 194.921 141.087 194.65 141.535 194.454C141.992 194.258 142.515 194.16 143.103 194.16C143.98 194.16 144.685 194.384 145.217 194.832C145.758 195.271 146.048 195.873 146.085 196.638H144.489C144.461 196.293 144.321 196.017 144.069 195.812C143.817 195.607 143.476 195.504 143.047 195.504C142.627 195.504 142.305 195.583 142.081 195.742C141.857 195.901 141.745 196.111 141.745 196.372C141.745 196.577 141.82 196.75 141.969 196.89C142.118 197.03 142.3 197.142 142.515 197.226C142.73 197.301 143.047 197.399 143.467 197.52C144.027 197.669 144.484 197.823 144.839 197.982C145.203 198.131 145.516 198.355 145.777 198.654C146.038 198.953 146.174 199.349 146.183 199.844C146.183 200.283 146.062 200.675 145.819 201.02C145.576 201.365 145.231 201.636 144.783 201.832C144.344 202.028 143.826 202.126 143.229 202.126ZM147.375 198.108C147.375 197.333 147.534 196.647 147.851 196.05C148.178 195.453 148.617 194.991 149.167 194.664C149.727 194.328 150.343 194.16 151.015 194.16C151.622 194.16 152.149 194.281 152.597 194.524C153.055 194.757 153.419 195.051 153.689 195.406V194.286H155.299V202H153.689V200.852C153.419 201.216 153.05 201.519 152.583 201.762C152.117 202.005 151.585 202.126 150.987 202.126C150.325 202.126 149.718 201.958 149.167 201.622C148.617 201.277 148.178 200.801 147.851 200.194C147.534 199.578 147.375 198.883 147.375 198.108ZM153.689 198.136C153.689 197.604 153.577 197.142 153.353 196.75C153.139 196.358 152.854 196.059 152.499 195.854C152.145 195.649 151.762 195.546 151.351 195.546C150.941 195.546 150.558 195.649 150.203 195.854C149.849 196.05 149.559 196.344 149.335 196.736C149.121 197.119 149.013 197.576 149.013 198.108C149.013 198.64 149.121 199.107 149.335 199.508C149.559 199.909 149.849 200.217 150.203 200.432C150.567 200.637 150.95 200.74 151.351 200.74C151.762 200.74 152.145 200.637 152.499 200.432C152.854 200.227 153.139 199.928 153.353 199.536C153.577 199.135 153.689 198.668 153.689 198.136ZM161.288 194.16C161.894 194.16 162.436 194.286 162.912 194.538C163.397 194.79 163.775 195.163 164.046 195.658C164.316 196.153 164.452 196.75 164.452 197.45V202H162.87V197.688C162.87 196.997 162.697 196.47 162.352 196.106C162.006 195.733 161.535 195.546 160.938 195.546C160.34 195.546 159.864 195.733 159.51 196.106C159.164 196.47 158.992 196.997 158.992 197.688V202H157.396V194.286H158.992V195.168C159.253 194.851 159.584 194.603 159.986 194.426C160.396 194.249 160.83 194.16 161.288 194.16ZM165.956 198.108C165.956 197.333 166.114 196.647 166.432 196.05C166.758 195.453 167.197 194.991 167.748 194.664C168.308 194.328 168.924 194.16 169.596 194.16C170.202 194.16 170.73 194.281 171.178 194.524C171.635 194.757 171.999 195.051 172.27 195.406V194.286H173.88V202H172.27V200.852C171.999 201.216 171.63 201.519 171.164 201.762C170.697 202.005 170.165 202.126 169.568 202.126C168.905 202.126 168.298 201.958 167.748 201.622C167.197 201.277 166.758 200.801 166.432 200.194C166.114 199.578 165.956 198.883 165.956 198.108ZM172.27 198.136C172.27 197.604 172.158 197.142 171.934 196.75C171.719 196.358 171.434 196.059 171.08 195.854C170.725 195.649 170.342 195.546 169.932 195.546C169.521 195.546 169.138 195.649 168.784 195.854C168.429 196.05 168.14 196.344 167.916 196.736C167.701 197.119 167.594 197.576 167.594 198.108C167.594 198.64 167.701 199.107 167.916 199.508C168.14 199.909 168.429 200.217 168.784 200.432C169.148 200.637 169.53 200.74 169.932 200.74C170.342 200.74 170.725 200.637 171.08 200.432C171.434 200.227 171.719 199.928 171.934 199.536C172.158 199.135 172.27 198.668 172.27 198.136ZM179.868 194.16C180.474 194.16 181.016 194.286 181.492 194.538C181.977 194.79 182.355 195.163 182.626 195.658C182.896 196.153 183.032 196.75 183.032 197.45V202H181.45V197.688C181.45 196.997 181.277 196.47 180.932 196.106C180.586 195.733 180.115 195.546 179.518 195.546C178.92 195.546 178.444 195.733 178.09 196.106C177.744 196.47 177.572 196.997 177.572 197.688V202H175.976V194.286H177.572V195.168C177.833 194.851 178.164 194.603 178.566 194.426C178.976 194.249 179.41 194.16 179.868 194.16ZM191.756 198.15L195.312 202H193.156L190.3 198.682V202H188.704V191.64H190.3V197.66L193.1 194.286H195.312L191.756 198.15ZM199.802 202.126C199.074 202.126 198.416 201.963 197.828 201.636C197.24 201.3 196.778 200.833 196.442 200.236C196.106 199.629 195.938 198.929 195.938 198.136C195.938 197.352 196.111 196.657 196.456 196.05C196.802 195.443 197.273 194.977 197.87 194.65C198.468 194.323 199.135 194.16 199.872 194.16C200.61 194.16 201.277 194.323 201.874 194.65C202.472 194.977 202.943 195.443 203.288 196.05C203.634 196.657 203.806 197.352 203.806 198.136C203.806 198.92 203.629 199.615 203.274 200.222C202.92 200.829 202.434 201.3 201.818 201.636C201.212 201.963 200.54 202.126 199.802 202.126ZM199.802 200.74C200.213 200.74 200.596 200.642 200.95 200.446C201.314 200.25 201.608 199.956 201.832 199.564C202.056 199.172 202.168 198.696 202.168 198.136C202.168 197.576 202.061 197.105 201.846 196.722C201.632 196.33 201.347 196.036 200.992 195.84C200.638 195.644 200.255 195.546 199.844 195.546C199.434 195.546 199.051 195.644 198.696 195.84C198.351 196.036 198.076 196.33 197.87 196.722C197.665 197.105 197.562 197.576 197.562 198.136C197.562 198.967 197.772 199.611 198.192 200.068C198.622 200.516 199.158 200.74 199.802 200.74ZM208.184 202.126C207.577 202.126 207.031 202.019 206.546 201.804C206.07 201.58 205.692 201.281 205.412 200.908C205.132 200.525 204.983 200.101 204.964 199.634H206.616C206.644 199.961 206.798 200.236 207.078 200.46C207.367 200.675 207.727 200.782 208.156 200.782C208.604 200.782 208.949 200.698 209.192 200.53C209.444 200.353 209.57 200.129 209.57 199.858C209.57 199.569 209.43 199.354 209.15 199.214C208.879 199.074 208.445 198.92 207.848 198.752C207.269 198.593 206.798 198.439 206.434 198.29C206.07 198.141 205.753 197.912 205.482 197.604C205.221 197.296 205.09 196.89 205.09 196.386C205.09 195.975 205.211 195.602 205.454 195.266C205.697 194.921 206.042 194.65 206.49 194.454C206.947 194.258 207.47 194.16 208.058 194.16C208.935 194.16 209.64 194.384 210.172 194.832C210.713 195.271 211.003 195.873 211.04 196.638H209.444C209.416 196.293 209.276 196.017 209.024 195.812C208.772 195.607 208.431 195.504 208.002 195.504C207.582 195.504 207.26 195.583 207.036 195.742C206.812 195.901 206.7 196.111 206.7 196.372C206.7 196.577 206.775 196.75 206.924 196.89C207.073 197.03 207.255 197.142 207.47 197.226C207.685 197.301 208.002 197.399 208.422 197.52C208.982 197.669 209.439 197.823 209.794 197.982C210.158 198.131 210.471 198.355 210.732 198.654C210.993 198.953 211.129 199.349 211.138 199.844C211.138 200.283 211.017 200.675 210.774 201.02C210.531 201.365 210.186 201.636 209.738 201.832C209.299 202.028 208.781 202.126 208.184 202.126ZM216.209 202.126C215.481 202.126 214.823 201.963 214.235 201.636C213.647 201.3 213.185 200.833 212.849 200.236C212.513 199.629 212.345 198.929 212.345 198.136C212.345 197.352 212.517 196.657 212.863 196.05C213.208 195.443 213.679 194.977 214.277 194.65C214.874 194.323 215.541 194.16 216.279 194.16C217.016 194.16 217.683 194.323 218.281 194.65C218.878 194.977 219.349 195.443 219.695 196.05C220.04 196.657 220.213 197.352 220.213 198.136C220.213 198.92 220.035 199.615 219.681 200.222C219.326 200.829 218.841 201.3 218.225 201.636C217.618 201.963 216.946 202.126 216.209 202.126ZM216.209 200.74C216.619 200.74 217.002 200.642 217.357 200.446C217.721 200.25 218.015 199.956 218.239 199.564C218.463 199.172 218.575 198.696 218.575 198.136C218.575 197.576 218.467 197.105 218.253 196.722C218.038 196.33 217.753 196.036 217.399 195.84C217.044 195.644 216.661 195.546 216.251 195.546C215.84 195.546 215.457 195.644 215.103 195.84C214.757 196.036 214.482 196.33 214.277 196.722C214.071 197.105 213.969 197.576 213.969 198.136C213.969 198.967 214.179 199.611 214.599 200.068C215.028 200.516 215.565 200.74 216.209 200.74ZM225.682 194.16C226.289 194.16 226.83 194.286 227.306 194.538C227.792 194.79 228.17 195.163 228.44 195.658C228.711 196.153 228.846 196.75 228.846 197.45V202H227.264V197.688C227.264 196.997 227.092 196.47 226.746 196.106C226.401 195.733 225.93 195.546 225.332 195.546C224.735 195.546 224.259 195.733 223.904 196.106C223.559 196.47 223.386 196.997 223.386 197.688V202H221.79V194.286H223.386V195.168C223.648 194.851 223.979 194.603 224.38 194.426C224.791 194.249 225.225 194.16 225.682 194.16ZM233.99 194.16C234.587 194.16 235.115 194.281 235.572 194.524C236.039 194.757 236.403 195.051 236.664 195.406V194.286H238.274V202.126C238.274 202.835 238.125 203.465 237.826 204.016C237.527 204.576 237.093 205.015 236.524 205.332C235.964 205.649 235.292 205.808 234.508 205.808C233.463 205.808 232.595 205.561 231.904 205.066C231.213 204.581 230.821 203.918 230.728 203.078H232.31C232.431 203.479 232.688 203.801 233.08 204.044C233.481 204.296 233.957 204.422 234.508 204.422C235.152 204.422 235.67 204.226 236.062 203.834C236.463 203.442 236.664 202.873 236.664 202.126V200.838C236.393 201.202 236.025 201.51 235.558 201.762C235.101 202.005 234.578 202.126 233.99 202.126C233.318 202.126 232.702 201.958 232.142 201.622C231.591 201.277 231.153 200.801 230.826 200.194C230.509 199.578 230.35 198.883 230.35 198.108C230.35 197.333 230.509 196.647 230.826 196.05C231.153 195.453 231.591 194.991 232.142 194.664C232.702 194.328 233.318 194.16 233.99 194.16ZM236.664 198.136C236.664 197.604 236.552 197.142 236.328 196.75C236.113 196.358 235.829 196.059 235.474 195.854C235.119 195.649 234.737 195.546 234.326 195.546C233.915 195.546 233.533 195.649 233.178 195.854C232.823 196.05 232.534 196.344 232.31 196.736C232.095 197.119 231.988 197.576 231.988 198.108C231.988 198.64 232.095 199.107 232.31 199.508C232.534 199.909 232.823 200.217 233.178 200.432C233.542 200.637 233.925 200.74 234.326 200.74C234.737 200.74 235.119 200.637 235.474 200.432C235.829 200.227 236.113 199.928 236.328 199.536C236.552 199.135 236.664 198.668 236.664 198.136ZM242.372 192.27L242.19 199.06H240.86L240.678 192.27H242.372ZM241.574 202.098C241.285 202.098 241.042 202 240.846 201.804C240.65 201.608 240.552 201.365 240.552 201.076C240.552 200.787 240.65 200.544 240.846 200.348C241.042 200.152 241.285 200.054 241.574 200.054C241.854 200.054 242.092 200.152 242.288 200.348C242.484 200.544 242.582 200.787 242.582 201.076C242.582 201.365 242.484 201.608 242.288 201.804C242.092 202 241.854 202.098 241.574 202.098Z" fill="#7126B5"/>
<path d="M7.06737 220.012H2.99337L2.29337 222H0.627367L4.11337 212.256H5.96137L9.44737 222H7.76737L7.06737 220.012ZM6.61937 218.71L5.03737 214.188L3.44137 218.71H6.61937ZM14.8551 214.16C15.4618 214.16 16.0031 214.286 16.4791 214.538C16.9644 214.79 17.3424 215.163 17.6131 215.658C17.8838 216.153 18.0191 216.75 18.0191 217.45V222H16.4371V217.688C16.4371 216.997 16.2644 216.47 15.9191 216.106C15.5738 215.733 15.1024 215.546 14.5051 215.546C13.9078 215.546 13.4318 215.733 13.0771 216.106C12.7318 216.47 12.5591 216.997 12.5591 217.688V222H10.9631V214.286H12.5591V215.168C12.8204 214.851 13.1518 214.603 13.5531 214.426C13.9638 214.249 14.3978 214.16 14.8551 214.16ZM19.5229 218.108C19.5229 217.333 19.6815 216.647 19.9989 216.05C20.3255 215.453 20.7642 214.991 21.3149 214.664C21.8749 214.328 22.4955 214.16 23.1769 214.16C23.6809 214.16 24.1755 214.272 24.6609 214.496C25.1555 214.711 25.5475 215 25.8369 215.364V211.64H27.4469V222H25.8369V220.838C25.5755 221.211 25.2115 221.519 24.7449 221.762C24.2875 222.005 23.7602 222.126 23.1629 222.126C22.4909 222.126 21.8749 221.958 21.3149 221.622C20.7642 221.277 20.3255 220.801 19.9989 220.194C19.6815 219.578 19.5229 218.883 19.5229 218.108ZM25.8369 218.136C25.8369 217.604 25.7249 217.142 25.5009 216.75C25.2862 216.358 25.0015 216.059 24.6469 215.854C24.2922 215.649 23.9095 215.546 23.4989 215.546C23.0882 215.546 22.7055 215.649 22.3509 215.854C21.9962 216.05 21.7069 216.344 21.4829 216.736C21.2682 217.119 21.1609 217.576 21.1609 218.108C21.1609 218.64 21.2682 219.107 21.4829 219.508C21.7069 219.909 21.9962 220.217 22.3509 220.432C22.7149 220.637 23.0975 220.74 23.4989 220.74C23.9095 220.74 24.2922 220.637 24.6469 220.432C25.0015 220.227 25.2862 219.928 25.5009 219.536C25.7249 219.135 25.8369 218.668 25.8369 218.136ZM29.0112 218.108C29.0112 217.333 29.1698 216.647 29.4872 216.05C29.8138 215.453 30.2525 214.991 30.8032 214.664C31.3632 214.328 31.9792 214.16 32.6512 214.16C33.2578 214.16 33.7852 214.281 34.2332 214.524C34.6905 214.757 35.0545 215.051 35.3252 215.406V214.286H36.9352V222H35.3252V220.852C35.0545 221.216 34.6858 221.519 34.2192 221.762C33.7525 222.005 33.2205 222.126 32.6232 222.126C31.9605 222.126 31.3538 221.958 30.8032 221.622C30.2525 221.277 29.8138 220.801 29.4872 220.194C29.1698 219.578 29.0112 218.883 29.0112 218.108ZM35.3252 218.136C35.3252 217.604 35.2132 217.142 34.9892 216.75C34.7745 216.358 34.4898 216.059 34.1352 215.854C33.7805 215.649 33.3978 215.546 32.9872 215.546C32.5765 215.546 32.1938 215.649 31.8392 215.854C31.4845 216.05 31.1952 216.344 30.9712 216.736C30.7565 217.119 30.6492 217.576 30.6492 218.108C30.6492 218.64 30.7565 219.107 30.9712 219.508C31.1952 219.909 31.4845 220.217 31.8392 220.432C32.2032 220.637 32.5858 220.74 32.9872 220.74C33.3978 220.74 33.7805 220.637 34.1352 220.432C34.4898 220.227 34.7745 219.928 34.9892 219.536C35.2132 219.135 35.3252 218.668 35.3252 218.136ZM44.2642 215.434C44.5348 215.061 44.9035 214.757 45.3702 214.524C45.8462 214.281 46.3735 214.16 46.9522 214.16C47.6335 214.16 48.2495 214.323 48.8002 214.65C49.3508 214.977 49.7848 215.443 50.1022 216.05C50.4195 216.647 50.5782 217.333 50.5782 218.108C50.5782 218.883 50.4195 219.578 50.1022 220.194C49.7848 220.801 49.3462 221.277 48.7862 221.622C48.2355 221.958 47.6242 222.126 46.9522 222.126C46.3548 222.126 45.8228 222.009 45.3562 221.776C44.8988 221.543 44.5348 221.244 44.2642 220.88V222H42.6682V211.64H44.2642V215.434ZM48.9542 218.108C48.9542 217.576 48.8422 217.119 48.6182 216.736C48.4035 216.344 48.1142 216.05 47.7502 215.854C47.3955 215.649 47.0128 215.546 46.6022 215.546C46.2008 215.546 45.8182 215.649 45.4542 215.854C45.0995 216.059 44.8102 216.358 44.5862 216.75C44.3715 217.142 44.2642 217.604 44.2642 218.136C44.2642 218.668 44.3715 219.135 44.5862 219.536C44.8102 219.928 45.0995 220.227 45.4542 220.432C45.8182 220.637 46.2008 220.74 46.6022 220.74C47.0128 220.74 47.3955 220.637 47.7502 220.432C48.1142 220.217 48.4035 219.909 48.6182 219.508C48.8422 219.107 48.9542 218.64 48.9542 218.108ZM59.2264 217.954C59.2264 218.243 59.2078 218.505 59.1704 218.738H53.2764C53.3231 219.354 53.5518 219.849 53.9624 220.222C54.3731 220.595 54.8771 220.782 55.4744 220.782C56.3331 220.782 56.9398 220.423 57.2944 219.704H59.0164C58.7831 220.413 58.3584 220.997 57.7424 221.454C57.1358 221.902 56.3798 222.126 55.4744 222.126C54.7371 222.126 54.0744 221.963 53.4864 221.636C52.9078 221.3 52.4504 220.833 52.1144 220.236C51.7878 219.629 51.6244 218.929 51.6244 218.136C51.6244 217.343 51.7831 216.647 52.1004 216.05C52.4271 215.443 52.8798 214.977 53.4584 214.65C54.0464 214.323 54.7184 214.16 55.4744 214.16C56.2024 214.16 56.8511 214.319 57.4204 214.636C57.9898 214.953 58.4331 215.401 58.7504 215.98C59.0678 216.549 59.2264 217.207 59.2264 217.954ZM57.5604 217.45C57.5511 216.862 57.3411 216.391 56.9304 216.036C56.5198 215.681 56.0111 215.504 55.4044 215.504C54.8538 215.504 54.3824 215.681 53.9904 216.036C53.5984 216.381 53.3651 216.853 53.2904 217.45H57.5604ZM62.3931 211.64V222H60.7971V211.64H62.3931ZM71.4745 214.286V222H69.8785V221.09C69.6265 221.407 69.2951 221.659 68.8845 221.846C68.4831 222.023 68.0538 222.112 67.5965 222.112C66.9898 222.112 66.4438 221.986 65.9585 221.734C65.4825 221.482 65.1045 221.109 64.8245 220.614C64.5538 220.119 64.4185 219.522 64.4185 218.822V214.286H66.0005V218.584C66.0005 219.275 66.1731 219.807 66.5185 220.18C66.8638 220.544 67.3351 220.726 67.9325 220.726C68.5298 220.726 69.0011 220.544 69.3465 220.18C69.7011 219.807 69.8785 219.275 69.8785 218.584V214.286H71.4745ZM82.9183 214.16C83.5249 214.16 84.0663 214.286 84.5423 214.538C85.0276 214.79 85.4056 215.163 85.6763 215.658C85.9563 216.153 86.0963 216.75 86.0963 217.45V222H84.5143V217.688C84.5143 216.997 84.3416 216.47 83.9963 216.106C83.6509 215.733 83.1796 215.546 82.5823 215.546C81.9849 215.546 81.5089 215.733 81.1543 216.106C80.8089 216.47 80.6363 216.997 80.6363 217.688V222H79.0543V217.688C79.0543 216.997 78.8816 216.47 78.5363 216.106C78.1909 215.733 77.7196 215.546 77.1223 215.546C76.5249 215.546 76.0489 215.733 75.6943 216.106C75.3489 216.47 75.1763 216.997 75.1763 217.688V222H73.5803V214.286H75.1763V215.168C75.4376 214.851 75.7689 214.603 76.1703 214.426C76.5716 214.249 77.0009 214.16 77.4583 214.16C78.0743 214.16 78.6249 214.291 79.1103 214.552C79.5956 214.813 79.9689 215.191 80.2303 215.686C80.4636 215.219 80.8276 214.851 81.3223 214.58C81.8169 214.3 82.3489 214.16 82.9183 214.16ZM101.102 214.16C101.709 214.16 102.25 214.286 102.726 214.538C103.211 214.79 103.589 215.163 103.86 215.658C104.14 216.153 104.28 216.75 104.28 217.45V222H102.698V217.688C102.698 216.997 102.525 216.47 102.18 216.106C101.835 215.733 101.363 215.546 100.766 215.546C100.169 215.546 99.6925 215.733 99.3379 216.106C98.9925 216.47 98.8199 216.997 98.8199 217.688V222H97.2379V217.688C97.2379 216.997 97.0652 216.47 96.7199 216.106C96.3745 215.733 95.9032 215.546 95.3059 215.546C94.7085 215.546 94.2325 215.733 93.8779 216.106C93.5325 216.47 93.3599 216.997 93.3599 217.688V222H91.7639V214.286H93.3599V215.168C93.6212 214.851 93.9525 214.603 94.3539 214.426C94.7552 214.249 95.1845 214.16 95.6419 214.16C96.2579 214.16 96.8085 214.291 97.2939 214.552C97.7792 214.813 98.1525 215.191 98.4139 215.686C98.6472 215.219 99.0112 214.851 99.5059 214.58C100.001 214.3 100.533 214.16 101.102 214.16ZM113.381 217.954C113.381 218.243 113.362 218.505 113.325 218.738H107.431C107.477 219.354 107.706 219.849 108.117 220.222C108.527 220.595 109.031 220.782 109.629 220.782C110.487 220.782 111.094 220.423 111.449 219.704H113.171C112.937 220.413 112.513 220.997 111.897 221.454C111.29 221.902 110.534 222.126 109.629 222.126C108.891 222.126 108.229 221.963 107.641 221.636C107.062 221.3 106.605 220.833 106.269 220.236C105.942 219.629 105.779 218.929 105.779 218.136C105.779 217.343 105.937 216.647 106.255 216.05C106.581 215.443 107.034 214.977 107.613 214.65C108.201 214.323 108.873 214.16 109.629 214.16C110.357 214.16 111.005 214.319 111.575 214.636C112.144 214.953 112.587 215.401 112.905 215.98C113.222 216.549 113.381 217.207 113.381 217.954ZM111.715 217.45C111.705 216.862 111.495 216.391 111.085 216.036C110.674 215.681 110.165 215.504 109.559 215.504C109.008 215.504 108.537 215.681 108.145 216.036C107.753 216.381 107.519 216.853 107.445 217.45H111.715ZM116.547 211.64V222H114.951V211.64H116.547ZM118.111 218.108C118.111 217.333 118.269 216.647 118.587 216.05C118.913 215.453 119.352 214.991 119.903 214.664C120.463 214.328 121.079 214.16 121.751 214.16C122.357 214.16 122.885 214.281 123.333 214.524C123.79 214.757 124.154 215.051 124.425 215.406V214.286H126.035V222H124.425V220.852C124.154 221.216 123.785 221.519 123.319 221.762C122.852 222.005 122.32 222.126 121.723 222.126C121.06 222.126 120.453 221.958 119.903 221.622C119.352 221.277 118.913 220.801 118.587 220.194C118.269 219.578 118.111 218.883 118.111 218.108ZM124.425 218.136C124.425 217.604 124.313 217.142 124.089 216.75C123.874 216.358 123.589 216.059 123.235 215.854C122.88 215.649 122.497 215.546 122.087 215.546C121.676 215.546 121.293 215.649 120.939 215.854C120.584 216.05 120.295 216.344 120.071 216.736C119.856 217.119 119.749 217.576 119.749 218.108C119.749 218.64 119.856 219.107 120.071 219.508C120.295 219.909 120.584 220.217 120.939 220.432C121.303 220.637 121.685 220.74 122.087 220.74C122.497 220.74 122.88 220.637 123.235 220.432C123.589 220.227 123.874 219.928 124.089 219.536C124.313 219.135 124.425 218.668 124.425 218.136ZM131.183 218.15L134.739 222H132.583L129.727 218.682V222H128.131V211.64H129.727V217.66L132.527 214.286H134.739L131.183 218.15ZM142.869 214.286V222H141.273V221.09C141.021 221.407 140.69 221.659 140.279 221.846C139.878 222.023 139.448 222.112 138.991 222.112C138.384 222.112 137.838 221.986 137.353 221.734C136.877 221.482 136.499 221.109 136.219 220.614C135.948 220.119 135.813 219.522 135.813 218.822V214.286H137.395V218.584C137.395 219.275 137.568 219.807 137.913 220.18C138.258 220.544 138.73 220.726 139.327 220.726C139.924 220.726 140.396 220.544 140.741 220.18C141.096 219.807 141.273 219.275 141.273 218.584V214.286H142.869ZM148.027 218.15L151.583 222H149.427L146.571 218.682V222H144.975V211.64H146.571V217.66L149.371 214.286H151.583L148.027 218.15ZM152.195 218.108C152.195 217.333 152.353 216.647 152.671 216.05C152.997 215.453 153.436 214.991 153.987 214.664C154.547 214.328 155.163 214.16 155.835 214.16C156.441 214.16 156.969 214.281 157.417 214.524C157.874 214.757 158.238 215.051 158.509 215.406V214.286H160.119V222H158.509V220.852C158.238 221.216 157.869 221.519 157.403 221.762C156.936 222.005 156.404 222.126 155.807 222.126C155.144 222.126 154.537 221.958 153.987 221.622C153.436 221.277 152.997 220.801 152.671 220.194C152.353 219.578 152.195 218.883 152.195 218.108ZM158.509 218.136C158.509 217.604 158.397 217.142 158.173 216.75C157.958 216.358 157.673 216.059 157.319 215.854C156.964 215.649 156.581 215.546 156.171 215.546C155.76 215.546 155.377 215.649 155.023 215.854C154.668 216.05 154.379 216.344 154.155 216.736C153.94 217.119 153.833 217.576 153.833 218.108C153.833 218.64 153.94 219.107 154.155 219.508C154.379 219.909 154.668 220.217 155.023 220.432C155.387 220.637 155.769 220.74 156.171 220.74C156.581 220.74 156.964 220.637 157.319 220.432C157.673 220.227 157.958 219.928 158.173 219.536C158.397 219.135 158.509 218.668 158.509 218.136ZM166.107 214.16C166.714 214.16 167.255 214.286 167.731 214.538C168.216 214.79 168.594 215.163 168.865 215.658C169.136 216.153 169.271 216.75 169.271 217.45V222H167.689V217.688C167.689 216.997 167.516 216.47 167.171 216.106C166.826 215.733 166.354 215.546 165.757 215.546C165.16 215.546 164.684 215.733 164.329 216.106C163.984 216.47 163.811 216.997 163.811 217.688V222H162.215V214.286H163.811V215.168C164.072 214.851 164.404 214.603 164.805 214.426C165.216 214.249 165.65 214.16 166.107 214.16ZM176.54 215.42C176.81 215.065 177.179 214.767 177.646 214.524C178.112 214.281 178.64 214.16 179.228 214.16C179.9 214.16 180.511 214.328 181.062 214.664C181.622 214.991 182.06 215.453 182.378 216.05C182.695 216.647 182.854 217.333 182.854 218.108C182.854 218.883 182.695 219.578 182.378 220.194C182.06 220.801 181.622 221.277 181.062 221.622C180.511 221.958 179.9 222.126 179.228 222.126C178.64 222.126 178.117 222.009 177.66 221.776C177.202 221.533 176.829 221.235 176.54 220.88V225.668H174.944V214.286H176.54V215.42ZM181.23 218.108C181.23 217.576 181.118 217.119 180.894 216.736C180.679 216.344 180.39 216.05 180.026 215.854C179.671 215.649 179.288 215.546 178.878 215.546C178.476 215.546 178.094 215.649 177.73 215.854C177.375 216.059 177.086 216.358 176.862 216.75C176.647 217.142 176.54 217.604 176.54 218.136C176.54 218.668 176.647 219.135 176.862 219.536C177.086 219.928 177.375 220.227 177.73 220.432C178.094 220.637 178.476 220.74 178.878 220.74C179.288 220.74 179.671 220.637 180.026 220.432C180.39 220.217 180.679 219.909 180.894 219.508C181.118 219.107 181.23 218.64 181.23 218.108ZM191.502 217.954C191.502 218.243 191.483 218.505 191.446 218.738H185.552C185.599 219.354 185.827 219.849 186.238 220.222C186.649 220.595 187.153 220.782 187.75 220.782C188.609 220.782 189.215 220.423 189.57 219.704H191.292C191.059 220.413 190.634 220.997 190.018 221.454C189.411 221.902 188.655 222.126 187.75 222.126C187.013 222.126 186.35 221.963 185.762 221.636C185.183 221.3 184.726 220.833 184.39 220.236C184.063 219.629 183.9 218.929 183.9 218.136C183.9 217.343 184.059 216.647 184.376 216.05C184.703 215.443 185.155 214.977 185.734 214.65C186.322 214.323 186.994 214.16 187.75 214.16C188.478 214.16 189.127 214.319 189.696 214.636C190.265 214.953 190.709 215.401 191.026 215.98C191.343 216.549 191.502 217.207 191.502 217.954ZM189.836 217.45C189.827 216.862 189.617 216.391 189.206 216.036C188.795 215.681 188.287 215.504 187.68 215.504C187.129 215.504 186.658 215.681 186.266 216.036C185.874 216.381 185.641 216.853 185.566 217.45H189.836ZM202.41 214.16C203.017 214.16 203.558 214.286 204.034 214.538C204.52 214.79 204.898 215.163 205.168 215.658C205.448 216.153 205.588 216.75 205.588 217.45V222H204.006V217.688C204.006 216.997 203.834 216.47 203.488 216.106C203.143 215.733 202.672 215.546 202.074 215.546C201.477 215.546 201.001 215.733 200.646 216.106C200.301 216.47 200.128 216.997 200.128 217.688V222H198.546V217.688C198.546 216.997 198.374 216.47 198.028 216.106C197.683 215.733 197.212 215.546 196.614 215.546C196.017 215.546 195.541 215.733 195.186 216.106C194.841 216.47 194.668 216.997 194.668 217.688V222H193.072V214.286H194.668V215.168C194.93 214.851 195.261 214.603 195.662 214.426C196.064 214.249 196.493 214.16 196.95 214.16C197.566 214.16 198.117 214.291 198.602 214.552C199.088 214.813 199.461 215.191 199.722 215.686C199.956 215.219 200.32 214.851 200.814 214.58C201.309 214.3 201.841 214.16 202.41 214.16ZM214.689 217.954C214.689 218.243 214.671 218.505 214.633 218.738H208.739C208.786 219.354 209.015 219.849 209.425 220.222C209.836 220.595 210.34 220.782 210.937 220.782C211.796 220.782 212.403 220.423 212.757 219.704H214.479C214.246 220.413 213.821 220.997 213.205 221.454C212.599 221.902 211.843 222.126 210.937 222.126C210.2 222.126 209.537 221.963 208.949 221.636C208.371 221.3 207.913 220.833 207.577 220.236C207.251 219.629 207.087 218.929 207.087 218.136C207.087 217.343 207.246 216.647 207.563 216.05C207.89 215.443 208.343 214.977 208.921 214.65C209.509 214.323 210.181 214.16 210.937 214.16C211.665 214.16 212.314 214.319 212.883 214.636C213.453 214.953 213.896 215.401 214.213 215.98C214.531 216.549 214.689 217.207 214.689 217.954ZM213.023 217.45C213.014 216.862 212.804 216.391 212.393 216.036C211.983 215.681 211.474 215.504 210.867 215.504C210.317 215.504 209.845 215.681 209.453 216.036C209.061 216.381 208.828 216.853 208.753 217.45H213.023ZM219.06 222.126C218.453 222.126 217.907 222.019 217.422 221.804C216.946 221.58 216.568 221.281 216.288 220.908C216.008 220.525 215.859 220.101 215.84 219.634H217.492C217.52 219.961 217.674 220.236 217.954 220.46C218.243 220.675 218.603 220.782 219.032 220.782C219.48 220.782 219.825 220.698 220.068 220.53C220.32 220.353 220.446 220.129 220.446 219.858C220.446 219.569 220.306 219.354 220.026 219.214C219.755 219.074 219.321 218.92 218.724 218.752C218.145 218.593 217.674 218.439 217.31 218.29C216.946 218.141 216.629 217.912 216.358 217.604C216.097 217.296 215.966 216.89 215.966 216.386C215.966 215.975 216.087 215.602 216.33 215.266C216.573 214.921 216.918 214.65 217.366 214.454C217.823 214.258 218.346 214.16 218.934 214.16C219.811 214.16 220.516 214.384 221.048 214.832C221.589 215.271 221.879 215.873 221.916 216.638H220.32C220.292 216.293 220.152 216.017 219.9 215.812C219.648 215.607 219.307 215.504 218.878 215.504C218.458 215.504 218.136 215.583 217.912 215.742C217.688 215.901 217.576 216.111 217.576 216.372C217.576 216.577 217.651 216.75 217.8 216.89C217.949 217.03 218.131 217.142 218.346 217.226C218.561 217.301 218.878 217.399 219.298 217.52C219.858 217.669 220.315 217.823 220.67 217.982C221.034 218.131 221.347 218.355 221.608 218.654C221.869 218.953 222.005 219.349 222.014 219.844C222.014 220.283 221.893 220.675 221.65 221.02C221.407 221.365 221.062 221.636 220.614 221.832C220.175 222.028 219.657 222.126 219.06 222.126ZM223.206 218.108C223.206 217.333 223.365 216.647 223.682 216.05C224.009 215.453 224.448 214.991 224.998 214.664C225.558 214.328 226.174 214.16 226.846 214.16C227.453 214.16 227.98 214.281 228.428 214.524C228.886 214.757 229.25 215.051 229.52 215.406V214.286H231.13V222H229.52V220.852C229.25 221.216 228.881 221.519 228.414 221.762C227.948 222.005 227.416 222.126 226.818 222.126C226.156 222.126 225.549 221.958 224.998 221.622C224.448 221.277 224.009 220.801 223.682 220.194C223.365 219.578 223.206 218.883 223.206 218.108ZM229.52 218.136C229.52 217.604 229.408 217.142 229.184 216.75C228.97 216.358 228.685 216.059 228.33 215.854C227.976 215.649 227.593 215.546 227.182 215.546C226.772 215.546 226.389 215.649 226.034 215.854C225.68 216.05 225.39 216.344 225.166 216.736C224.952 217.119 224.844 217.576 224.844 218.108C224.844 218.64 224.952 219.107 225.166 219.508C225.39 219.909 225.68 220.217 226.034 220.432C226.398 220.637 226.781 220.74 227.182 220.74C227.593 220.74 227.976 220.637 228.33 220.432C228.685 220.227 228.97 219.928 229.184 219.536C229.408 219.135 229.52 218.668 229.52 218.136ZM237.119 214.16C237.725 214.16 238.267 214.286 238.743 214.538C239.228 214.79 239.606 215.163 239.877 215.658C240.147 216.153 240.283 216.75 240.283 217.45V222H238.701V217.688C238.701 216.997 238.528 216.47 238.183 216.106C237.837 215.733 237.366 215.546 236.769 215.546C236.171 215.546 235.695 215.733 235.341 216.106C234.995 216.47 234.823 216.997 234.823 217.688V222H233.227V214.286H234.823V215.168C235.084 214.851 235.415 214.603 235.817 214.426C236.227 214.249 236.661 214.16 237.119 214.16ZM241.787 218.108C241.787 217.333 241.945 216.647 242.263 216.05C242.589 215.453 243.028 214.991 243.579 214.664C244.139 214.328 244.755 214.16 245.427 214.16C246.033 214.16 246.561 214.281 247.009 214.524C247.466 214.757 247.83 215.051 248.101 215.406V214.286H249.711V222H248.101V220.852C247.83 221.216 247.461 221.519 246.995 221.762C246.528 222.005 245.996 222.126 245.399 222.126C244.736 222.126 244.129 221.958 243.579 221.622C243.028 221.277 242.589 220.801 242.263 220.194C241.945 219.578 241.787 218.883 241.787 218.108ZM248.101 218.136C248.101 217.604 247.989 217.142 247.765 216.75C247.55 216.358 247.265 216.059 246.911 215.854C246.556 215.649 246.173 215.546 245.763 215.546C245.352 215.546 244.969 215.649 244.615 215.854C244.26 216.05 243.971 216.344 243.747 216.736C243.532 217.119 243.425 217.576 243.425 218.108C243.425 218.64 243.532 219.107 243.747 219.508C243.971 219.909 244.26 220.217 244.615 220.432C244.979 220.637 245.361 220.74 245.763 220.74C246.173 220.74 246.556 220.637 246.911 220.432C247.265 220.227 247.55 219.928 247.765 219.536C247.989 219.135 248.101 218.668 248.101 218.136ZM255.699 214.16C256.306 214.16 256.847 214.286 257.323 214.538C257.808 214.79 258.186 215.163 258.457 215.658C258.728 216.153 258.863 216.75 258.863 217.45V222H257.281V217.688C257.281 216.997 257.108 216.47 256.763 216.106C256.418 215.733 255.946 215.546 255.349 215.546C254.752 215.546 254.276 215.733 253.921 216.106C253.576 216.47 253.403 216.997 253.403 217.688V222H251.807V214.286H253.403V215.168C253.664 214.851 253.996 214.603 254.397 214.426C254.808 214.249 255.242 214.16 255.699 214.16Z" fill="black"/>
<path d="M118.237 15.6743C118.237 15.6743 94.0699 -2.20494 69.9103 0.227446C45.7507 2.65983 21.3409 33.8116 21.3409 33.8116L29.162 39.74C29.162 39.74 69.6992 6.10896 91.6532 30.9725C113.607 55.836 118.237 15.6743 118.237 15.6743Z" fill="#7126B5"/>
<path opacity="0.2" d="M118.237 15.6743C118.237 15.6743 94.0699 -2.20494 69.9103 0.227446C45.7507 2.65983 21.3409 33.8116 21.3409 33.8116L29.162 39.74C29.162 39.74 69.6992 6.10896 91.6532 30.9725C113.607 55.836 118.237 15.6743 118.237 15.6743Z" fill="white"/>
<path d="M17 13.1792H99.9826V66.7933H17V13.1792Z" fill="#FFD200"/>
<path opacity="0.45" d="M234.288 127.666C232.759 127.357 231.318 126.712 230.069 125.777C228.821 124.842 227.796 123.641 227.069 122.261V122.183L190.036 51.6597L169.654 66.0897L184.068 111.406C184.448 112.597 184.534 113.863 184.319 115.095C184.104 116.327 183.593 117.488 182.832 118.48C182.07 119.472 181.08 120.265 179.946 120.792C178.811 121.318 177.566 121.562 176.317 121.503C165.368 121.002 153.722 120.721 141.623 120.721C79.1157 120.721 28.4424 128.002 28.4424 136.989C28.4424 145.975 79.1157 153.265 141.623 153.265C204.129 153.265 254.764 145.983 254.764 137.012C254.764 133.524 247.185 130.309 234.288 127.666Z" fill="#E6E6E6"/>
<path d="M116.517 131.678C116.517 131.678 117.674 135.588 121.108 136.05C124.541 136.511 125.261 139.96 122.109 140.664C118.957 141.368 111.159 136.949 111.159 136.949L111.652 131.983L116.517 131.678Z" fill="#7126B5"/>
<path d="M49.6694 131.013C49.6694 131.013 45.6963 131.874 44.9767 135.26C44.2572 138.647 40.7689 139.1 40.284 135.901C39.7991 132.703 44.8281 125.28 44.8281 125.28L49.7398 126.164L49.6694 131.013Z" fill="#7126B5"/>
<path d="M50.2009 72.6201C50.2009 72.6201 46.5406 89.7016 59.7193 97.0222C72.898 104.343 114.468 91.1641 108.046 132.655H117.322C117.322 132.655 129.312 98.2423 98.2073 86.01L88.7671 75.3028L50.2009 72.6201Z" fill="#24285B"/>
<path d="M175.019 57.2756L178.174 60.2908L158.441 80.9408L155.285 77.9257L175.019 57.2756Z" fill="#FFD200"/>
<path opacity="0.08" d="M175.019 57.2756L178.174 60.2908L158.441 80.9408L155.285 77.9257L175.019 57.2756Z" fill="black"/>
<path d="M173.482 55.7971L176.637 58.8123L156.903 79.4623L153.748 76.4472L173.482 55.7971Z" fill="#FFD200"/>
<path d="M185.22 62.6121C190.293 57.3032 191.535 50.2561 187.993 46.8719C184.452 43.4878 177.469 45.048 172.395 50.3569C167.322 55.6658 166.08 62.7129 169.621 66.0971C173.163 69.4812 180.146 67.9209 185.22 62.6121Z" fill="#FFD200"/>
<path opacity="0.08" d="M185.22 62.6121C190.293 57.3032 191.535 50.2561 187.993 46.8719C184.452 43.4878 177.469 45.048 172.395 50.3569C167.322 55.6658 166.08 62.7129 169.621 66.0971C173.163 69.4812 180.146 67.9209 185.22 62.6121Z" fill="black"/>
<path d="M183.679 61.1458C188.752 55.8369 189.994 48.7898 186.452 45.4056C182.911 42.0215 175.928 43.5817 170.854 48.8906C165.781 54.1995 164.539 61.2466 168.08 64.6308C171.622 68.0149 178.605 66.4546 183.679 61.1458Z" fill="#FFD200"/>
<path opacity="0.57" d="M181.502 59.0655C184.853 55.5586 185.674 50.9036 183.335 48.6684C180.996 46.4331 176.383 47.4641 173.031 50.9711C169.68 54.4781 168.859 59.133 171.198 61.3683C173.538 63.6035 178.15 62.5725 181.502 59.0655Z" fill="white"/>
<path d="M150.938 17.606C150.938 17.606 147.41 22.7288 143.985 25.2473C143.652 25.4893 143.276 25.6635 142.876 25.7599C142.477 25.8563 142.062 25.873 141.656 25.8091C141.25 25.7451 140.86 25.6018 140.51 25.3873C140.159 25.1728 139.854 24.8914 139.613 24.559C138.369 22.8149 137.196 20.0931 138.752 17.1211L140.77 11.7479C141.293 10.7209 142.121 9.88097 143.141 9.34326C144.16 8.80554 145.321 8.59642 146.464 8.74458C150.742 8.99486 153.237 14.5948 150.938 17.606Z" fill="#F4A28C"/>
<path d="M142.005 12.8508L126.089 19.2642L128.045 30.5892L139.518 21.2273L142.005 12.8508Z" fill="#F4A28C"/>
<path d="M149.585 16.8239C148.054 15.658 146.663 14.3196 145.439 12.8351C145.328 13.8405 144.927 14.7918 144.284 15.5725C143.641 16.3532 142.784 16.9294 141.818 17.2306C140.887 17.537 139.879 17.5103 138.966 17.155C138.053 16.7997 137.291 16.138 136.813 15.2831L141.974 9.18258C142.68 8.27981 143.617 7.58497 144.685 7.17184C145.754 6.75872 146.914 6.64274 148.044 6.83623C149.019 7.00427 149.983 7.23416 150.93 7.52449C153.276 8.30661 154.911 11.6071 157.492 11.7166C157.751 11.7293 158.003 11.8091 158.223 11.9483C158.442 12.0875 158.622 12.2812 158.744 12.5106C158.866 12.7399 158.927 12.9971 158.92 13.2568C158.913 13.5166 158.838 13.7701 158.704 13.9926C157.437 16.0965 154.668 18.7713 151.282 17.6998C150.672 17.5032 150.098 17.2072 149.585 16.8239Z" fill="#24285B"/>
<path d="M142.451 17.5123C142.451 17.5123 143.937 15.6352 142.451 14.6263C140.965 13.6174 138.783 16.3235 140.465 18.1302L142.451 17.5123Z" fill="#F4A28C"/>
<path d="M148.552 20.719L148.364 23.6676C148.348 23.8326 148.292 23.9911 148.199 24.1289C148.107 24.2667 147.982 24.3794 147.836 24.457C147.689 24.5345 147.526 24.5744 147.36 24.5731C147.194 24.5719 147.031 24.5295 146.886 24.4497L144.766 23.2765L148.552 20.719Z" fill="#F4A28C"/>
<path opacity="0.31" d="M138.228 22.2674C138.228 22.2674 138.705 18.7088 139.988 17.3557C139.988 17.3557 134.193 19.311 134.06 25.6853L138.228 22.2674Z" fill="#CE8172"/>
<path opacity="0.08" d="M33.1584 65.4092C33.1584 65.4092 32.9081 28.5167 77.2229 20.719L51.1862 66.7935H33.1975L33.1584 65.4092Z" fill="black"/>
<path d="M130.157 34.5075L128.843 26.8662C128.329 23.7499 127.033 20.815 125.076 18.3363C123.118 15.8576 120.564 13.9164 117.651 12.6943C115.116 11.6808 112.466 10.9847 109.76 10.6217C106.287 10.1368 101.422 10.6217 95.9787 12.0529C72.5309 18.2082 55.3243 38.074 51.7657 62.0224L50.2014 72.6201L88.7676 75.3028C88.7676 75.3028 86.8123 64.3531 100.499 64.3531C114.186 64.3531 131.518 64.4939 130.157 34.5075Z" fill="#7126B5"/>
<path opacity="0.08" d="M92.3654 22.6587C92.3654 22.6587 73.6493 25.9514 53.0796 55.5936L50.2014 72.6203L79.4682 74.7946L92.3654 22.6587Z" fill="black"/>
<path d="M113.827 36.2909C117.479 24.1056 103.315 14.2509 93.2178 21.9938C84.771 28.462 75.2291 40.1077 74.8537 59.7623C74.2046 95.2313 108.18 88.8883 154.16 75.3029L152.698 64.9712C152.698 64.9712 97.6368 75.3812 105.114 57.4863C108.242 50.0015 111.887 42.7747 113.827 36.2909Z" fill="#7126B5"/>
<path opacity="0.2" d="M113.827 36.2909C117.479 24.1056 103.315 14.2509 93.2178 21.9938C84.771 28.462 75.2291 40.1077 74.8537 59.7623C74.2046 95.2313 108.18 88.8883 154.16 75.3029L152.698 64.9712C152.698 64.9712 97.6368 75.3812 105.114 57.4863C108.242 50.0015 111.887 42.7747 113.827 36.2909Z" fill="white"/>
<path d="M94.4999 86.0959C94.4999 86.0959 95.6339 125.319 49.7393 132.655L47.9639 124.341C47.9639 124.341 84.7234 115.23 60.9783 90.8199L94.4999 86.0959Z" fill="#24285B"/>
<path opacity="0.08" d="M166.791 138.842C169.547 138.842 171.781 138.016 171.781 136.996C171.781 135.977 169.547 135.15 166.791 135.15C164.036 135.15 161.802 135.977 161.802 136.996C161.802 138.016 164.036 138.842 166.791 138.842Z" fill="black"/>
<path opacity="0.08" d="M185.875 134.063C188.631 134.063 190.865 133.237 190.865 132.218C190.865 131.198 188.631 130.372 185.875 130.372C183.119 130.372 180.885 131.198 180.885 132.218C180.885 133.237 183.119 134.063 185.875 134.063Z" fill="black"/>
<path opacity="0.08" d="M205.091 137.755C207.847 137.755 210.081 136.928 210.081 135.909C210.081 134.89 207.847 134.063 205.091 134.063C202.335 134.063 200.101 134.89 200.101 135.909C200.101 136.928 202.335 137.755 205.091 137.755Z" fill="black"/>
<path opacity="0.08" d="M234.515 139.609C237.271 139.609 239.505 138.782 239.505 137.763C239.505 136.743 237.271 135.917 234.515 135.917C231.759 135.917 229.525 136.743 229.525 137.763C229.525 138.782 231.759 139.609 234.515 139.609Z" fill="black"/>
<path opacity="0.08" d="M147.872 133.649C150.688 133.649 152.972 132.801 152.972 131.756C152.972 130.711 150.688 129.863 147.872 129.863C145.056 129.863 142.773 130.711 142.773 131.756C142.773 132.801 145.056 133.649 147.872 133.649Z" fill="black"/>
<path d="M152.979 66.9576C152.979 66.9576 165.633 65.6202 166.744 70.5632C167.855 75.5062 165.43 78.1263 154.042 74.4738L152.979 66.9576Z" fill="#F4A28C"/>
<path d="M26.9092 66.7934C26.9092 66.7934 28.7315 74.1766 36.0287 72.6202C43.3258 71.0638 38.1169 62.0069 26.9092 66.7934Z" fill="#F4A28C"/>
</svg>
